<svg viewBox="0 0 32 32" xmlns="http://www.w3.org/2000/svg"><defs><style>.cls-1{fill:#1a76d3;}.cls-2{fill:#b3bfc6;}.cls-3{fill:#2893ea;}.cls-4{fill:#d9e1e8;}</style></defs><title></title><g id="Mountains"><path class="cls-1" d="M27.83,29.55A1,1,0,0,1,27,30H21a1,1,0,0,1-.94-.66l-2.54-7s0,0,0,0l-2.4-6.6a1,1,0,0,1,.07-.82l2.94-5.4A1,1,0,0,1,19.05,9a1,1,0,0,1,.87.61l2.8,6.66,5.2,12.34A1,1,0,0,1,27.83,29.55Z"></path><path class="cls-2" d="M22.72,16.27l-3.39,6.21a1,1,0,0,1-.87.52h-.08a1,1,0,0,1-.86-.64s0,0,0,0l-2.4-6.6a1,1,0,0,1,.07-.82l2.94-5.4A1,1,0,0,1,19.05,9a1,1,0,0,1,.87.61Z"></path><path class="cls-3" d="M21.82,29.57A1,1,0,0,1,21,30H5a1,1,0,0,1-.82-.43,1,1,0,0,1-.12-.91L8.85,15.49l3.21-8.83a1,1,0,0,1,1.88,0l3.21,8.83,4.79,13.17A1,1,0,0,1,21.82,29.57Z"></path><path class="cls-4" d="M17.15,15.49l-3.27,6a1,1,0,0,1-1.76,0l-3.27-6,3.21-8.83a1,1,0,0,1,1.88,0Z"></path><path class="cls-4" d="M29,30H3a1,1,0,0,1,0-2H29a1,1,0,0,1,0,2Z"></path></g></svg>